PathFileType	4	(X/Y/Z)	./resultDataOpenSim/trcMotMarkerGrf/sub10/qtm-15-01.trc
DataRate	CameraRate	NumFrames	NumMarkers	Units	OrigDataRate	OrigDataStartFrame	OrigNumFrames
250.000000	250.000000	13	24	m	250.000000	227	452
Frame#	Time	L.Toe.Tip			R.Toe.Tip			L.Ankle.Lat			R.Ankle.Lat			L.Ankle.Med			R.Ankle.Med			L.Heel			R.Heel			L.Knee.Lat			R.Knee.Lat			L.Knee.Med			R.Knee.Med			L.Thigh.Upper			R.Thigh.Upper			L.ASIS			R.ASIS			V.Sacral			L.Acromium			R.Acromium			C7			L.Elbow			R.Elbow			L.Wrist.Lat			R.Wrist.Lat
		X1	Y1	Z1	X2	Y2	Z2	X3	Y3	Z3	X4	Y4	Z4	X5	Y5	Z5	X6	Y6	Z6	X7	Y7	Z7	X8	Y8	Z8	X9	Y9	Z9	X10	Y10	Z10	X11	Y11	Z11	X12	Y12	Z12	X13	Y13	Z13	X14	Y14	Z14	X15	Y15	Z15	X16	Y16	Z16	X17	Y17	Z17	X18	Y18	Z18	X19	Y19	Z19	X20	Y20	Z20	X21	Y21	Z21	X22	Y22	Z22	X23	Y23	Z23	X24	Y24	Z24

227	0.904	-0.0031739138	-0.057386275	-0.10341872	0.27502156	0.16666205	0.16975999	-0.13255685	-0.031609064	-0.13669029	0.13852204	0.20688554	0.16081546	-0.12490088	-0.0060640218	-0.052891397	0.18090516	0.20004433	0.078951944	-0.20348208	-0.055392633	-0.094676838	0.095398877	0.17046604	0.1131759	-0.0073114602	0.33153682	-0.1781001	0.29483276	0.55142457	0.097895321	-0.0029415307	0.31856872	-0.057726763	0.31639921	0.54331083	-0.033691055	-0.029086061	0.72301674	-0.25177588	-0.023421248	0.7744323	0.13435309	0.04318188	0.82454565	-0.18283639	0.045804152	0.85398668	0.056736715	-0.15713055	0.86829751	-0.073218297	0.12867432	1.2961503	-0.21445447	0.060245746	1.3287074	0.06848154	0.019574722	1.3400715	-0.095554444	0.10127236	1.0300979	-0.43900909	-0.098171431	1.1361386	0.30444163	0.33797615	0.99181619	-0.52136166	-0.0073513265	1.1542657	0.53806583
228	0.908	-0.0032015204	-0.057413177	-0.10345366	0.30173943	0.16551694	0.16495116	-0.13260479	-0.0312131	-0.13660655	0.16363407	0.20002684	0.15945192	-0.12468557	-0.0054067753	-0.053086235	0.20456475	0.19609989	0.076599938	-0.20362102	-0.054721027	-0.094447957	0.12107469	0.16267267	0.11198821	-0.0069628939	0.33175811	-0.1787213	0.30300798	0.55372858	0.0962885	-0.0019062468	0.31893265	-0.058279116	0.32130227	0.54692291	-0.033826599	-0.025096828	0.72419872	-0.2519044	-0.015014104	0.77583976	0.13478208	0.048256827	0.82478887	-0.18376318	0.053296413	0.85383518	0.055413274	-0.15037715	0.86913495	-0.071289481	0.13576982	1.2971152	-0.21429273	0.067048263	1.3298692	0.06773324	0.027086334	1.3406754	-0.095537236	0.11306065	1.0346905	-0.44278999	-0.093571602	1.1430084	0.30529655	0.35175122	1.0017437	-0.52237447	-0.0073856574	1.1639335	0.54046366
229	0.912	-0.0032478863	-0.05737894	-0.10350064	0.32808221	0.1645767	0.15966931	-0.13280489	-0.030718481	-0.13637104	0.18879401	0.1935678	0.15779598	-0.12437904	-0.0046825267	-0.05323255	0.22813811	0.19241082	0.0740653	-0.20368502	-0.0539991	-0.094216218	0.1466689	0.15539801	0.11051309	-0.0066477349	0.33201368	-0.17929343	0.31088897	0.55530061	0.095109351	-0.0010769449	0.31936867	-0.058796917	0.32580875	0.54975394	-0.03359354	-0.020917163	0.72530617	-0.25204303	-0.006497719	0.77718112	0.13514685	0.053342497	0.82510205	-0.18478208	0.060722378	0.85361552	0.054110133	-0.14382073	0.87003068	-0.069537982	0.14283798	1.2981654	-0.214114	0.073863912	1.3310436	0.066957168	0.034535824	1.3412886	-0.095576449	0.12465851	1.0393695	-0.44638985	-0.088933216	1.1498671	0.30599597	0.36517913	1.0117982	-0.52319704	-0.0071772717	1.1737166	0.54256622
230	0.916	-0.0032720876	-0.057315843	-0.10356444	0.35411239	0.1637559	0.15391349	-0.13308909	-0.030123352	-0.13602481	0.21384647	0.18755657	0.15584961	-0.12394703	-0.0039168149	-0.053312762	0.25151233	0.18902015	0.071356896	-0.2036623	-0.053264625	-0.093873974	0.17206288	0.14864889	0.10879899	-0.0063332661	0.33233811	-0.17980808	0.31847215	0.55616148	0.094281888	-3.0112757e-05	0.31977047	-0.059404356	0.33062623	0.55185796	-0.03339045	-0.016608748	0.72633081	-0.25215729	0.0021298538	0.7784576	0.1354206	0.058424049	0.82547715	-0.18588668	0.068213183	0.85338487	0.052892939	-0.13739752	0.87091549	-0.067883296	0.14987609	1.2992848	-0.21391207	0.080717127	1.3322218	0.06615885	0.041929948	1.341926	-0.095661099	0.13603048	1.0440884	-0.44982644	-0.084232529	1.1566543	0.30651361	0.37826989	1.021921	-0.5238844	-0.0067643808	1.1835742	0.54437091
231	0.92	-0.0032347321	-0.057271342	-0.10363779	0.37979324	0.16302419	0.14776279	-0.13325029	-0.029461788	-0.13570421	0.2386859	0.1819971	0.15361277	-0.12339392	-0.0031208496	-0.053321495	0.27458568	0.18597843	0.06845994	-0.20355692	-0.052510086	-0.093385291	0.19723846	0.14240242	0.10679644	-0.0059986996	0.33275733	-0.18027396	0.3259906	0.55647592	0.093636127	0.0014102473	0.32004148	-0.060099415	0.33611912	0.55331852	-0.033441331	-0.012281743	0.72726125	-0.25215946	0.010850184	0.77966614	0.13559214	0.063487705	0.82590755	-0.18707592	0.07586057	0.85319326	0.051804751	-0.1310386	0.87177493	-0.066257867	0.15688771	1.3004701	-0.2136877	0.087613394	1.3334036	0.065341909	0.049278736	1.3425971	-0.095781108	0.1472118	1.0488804	-0.45305331	-0.079496135	1.1633436	0.30688212	0.39101048	1.032031	-0.52449004	-0.0062247586	1.193462	0.5458763
232	0.924	-0.0031293134	-0.057244514	-0.10372792	0.40504003	0.16237542	0.14133819	-0.13318407	-0.028772852	-0.13546737	0.26328911	0.17684084	0.15108619	-0.12275214	-0.0023121461	-0.053249551	0.29733004	0.18329205	0.065384528	-0.20338789	-0.05170493	-0.092777243	0.22222223	0.13663554	0.10442133	-0.0056477867	0.333281	-0.18070389	0.33363463	0.55639659	0.093052403	0.0029709073	0.32022059	-0.06074186	0.34218189	0.5542069	-0.033681313	-0.0080706676	0.72806644	-0.25192047	0.01962811	0.78080449	0.13566983	0.068548792	0.82639372	-0.18833783	0.083661023	0.85305784	0.050839253	-0.12473729	0.87261307	-0.064646077	0.16387526	1.3017232	-0.21344366	0.094533002	1.334591	0.064504728	0.056588618	1.3433036	-0.095933236	0.15825376	1.0537777	-0.45601896	-0.074780631	1.1699319	0.30714795	0.40337549	1.0420463	-0.5250653	-0.0055956094	1.2033511	0.54708946
233	0.928	-0.0029806261	-0.057208384	-0.10383923	0.4297851	0.16179021	0.13474425	-0.13296441	-0.028077147	-0.13524326	0.28766107	0.17202489	0.14825543	-0.12208167	-0.0015121477	-0.053078919	0.31976583	0.18093182	0.06216483	-0.2031784	-0.050808711	-0.09210846	0.24697573	0.13135494	0.10167672	-0.0052895201	0.33390371	-0.18109508	0.34140173	0.55597942	0.09249972	0.0043429348	0.32041247	-0.061221482	0.34857815	0.55457996	-0.033964285	-0.0040415454	0.72871683	-0.25137328	0.028434217	0.78187718	0.13567546	0.073641681	0.8269412	-0.18965223	0.091564568	0.85297306	0.049964997	-0.11848883	0.87343775	-0.063049265	0.17083444	1.3030387	-0.21318414	0.10144208	1.3357835	0.063646188	0.063863634	1.3440477	-0.096110502	0.16916546	1.0587592	-0.45875633	-0.070121745	1.176418	0.30733728	0.41532937	1.0519226	-0.52565191	-0.0048657889	1.2132266	0.54802224
234	0.932	-0.0028280079	-0.057157182	-0.10394563	0.45398458	0.16124151	0.12804153	-0.13266073	-0.02738345	-0.13497251	0.31180463	0.16752024	0.14509809	-0.1214402	-0.00071352536	-0.052804866	0.34188761	0.17886651	0.058830338	-0.20292952	-0.049771508	-0.091402635	0.27137536	0.12659379	0.098669776	-0.0049155369	0.3346097	-0.18142451	0.34918815	0.55522865	0.091990131	0.00549039	0.32067128	-0.061532539	0.35516444	0.5544842	-0.034208983	-8.5591177e-05	0.72924647	-0.25065816	0.03725502	0.78288742	0.1356341	0.078783152	0.827553	-0.19100501	0.099536036	0.85293565	0.049153926	-0.11215154	0.87427187	-0.061421137	0.17775643	1.3044012	-0.21291416	0.10831807	1.3369773	0.062773173	0.07110384	1.3448359	-0.096306861	0.179913	1.0637587	-0.46139072	-0.065470684	1.1827868	0.30744692	0.42684059	1.0616542	-0.52627153	-0.0040036348	1.2230842	0.54868436
235	0.936	-0.0026994377	-0.05710743	-0.1040122	0.47759472	0.16072095	0.12124546	-0.13224973	-0.026685767	-0.13468554	0.33568347	0.16335903	0.14163205	-0.12084897	0.00011904387	-0.052448692	0.36363039	0.17707814	0.055399808	-0.20261059	-0.048537355	-0.090629271	0.29527619	0.12238496	0.09551462	-0.0045002188	0.33537747	-0.18166619	0.35690615	0.5541603	0.091536978	0.0065398194	0.3210019	-0.061707802	0.36188744	0.5539584	-0.034391331	0.0040246131	0.72975455	-0.25006335	0.046084768	0.78383265	0.13556753	0.083971248	0.82822907	-0.19238685	0.10756856	0.85295359	0.048387524	-0.10532892	0.87517268	-0.059615006	0.18462991	1.3057953	-0.21264158	0.11516166	1.3381677	0.061896028	0.078304174	1.3456709	-0.096523456	0.19045654	1.0687072	-0.46407455	-0.060721657	1.189008	0.30745884	0.43790618	1.0712326	-0.52691836	-0.0029844484	1.2329204	0.54908067
236	0.94	-0.0025975764	-0.057073446	-0.10402868	0.50055384	0.16025152	0.11434697	-0.13172988	-0.025944522	-0.13443724	0.35916292	0.15962228	0.13794369	-0.12028356	0.0010127105	-0.052051173	0.38489889	0.17555486	0.051891489	-0.20220018	-0.047075719	-0.089779738	0.31857205	0.11873386	0.092254289	-0.0040180222	0.33618683	-0.18181299	0.36451193	0.55281265	0.091139288	0.0076094404	0.32140493	-0.061765487	0.36872808	0.55303981	-0.034509213	0.0084219875	0.73032068	-0.24975549	0.054913054	0.78471768	0.13548949	0.089206646	0.82897077	-0.19378444	0.1156623	0.85303784	0.047649974	-0.097541339	0.87621532	-0.057440196	0.19144427	1.3072161	-0.21237726	0.12199393	1.3393564	0.061026262	0.085465961	1.3465467	-0.096756213	0.20078883	1.0735902	-0.46686898	-0.055840512	1.1950615	0.30736367	0.44854375	1.0806429	-0.52756284	-0.0018120962	1.2427113	0.54921107
237	0.944	-0.0025120423	-0.05705751	-0.10400848	0.52278794	0.15987769	0.10734823	-0.13119029	-0.025102009	-0.1342363	0.38203963	0.15638603	0.13416292	-0.11969684	0.0019682116	-0.051659212	0.40560639	0.17427308	0.048331093	-0.20172747	-0.045436756	-0.088917157	0.34120773	0.11560533	0.088883819	-0.0034561499	0.33702561	-0.18187997	0.37198619	0.55121997	0.090782583	0.0087593619	0.32188807	-0.061729511	0.37567651	0.55176882	-0.034577954	0.013052772	0.73095504	-0.24967193	0.06372416	0.78556243	0.13540033	0.094493655	0.82978353	-0.19517967	0.12380798	0.85319743	0.046926778	-0.08879049	0.87741667	-0.054905255	0.19819661	1.3086693	-0.21212748	0.12883833	1.3405533	0.060178721	0.092602723	1.3474552	-0.096986463	0.21095158	1.0784786	-0.46961419	-0.050901771	1.2009662	0.30715784	0.45874614	1.0898793	-0.52818107	-0.00052073316	1.2524097	0.54907199
238	0.948	-0.00243464	-0.057054192	-0.10397145	0.54423446	0.15964576	0.10029151	-0.13071539	-0.024136808	-0.13405807	0.40416356	0.15367241	0.13042161	-0.11905811	0.0029719687	-0.051305175	0.42569386	0.17318874	0.0447514	-0.20125587	-0.043747079	-0.088129204	0.36316145	0.11292924	0.08540959	-0.0028067292	0.33788992	-0.18188924	0.37932284	0.54939124	0.09044714	0.010003105	0.322454	-0.06165424	0.38275028	0.55019791	-0.034655658	0.017783853	0.73163476	-0.24967338	0.072505518	0.78639138	0.13528841	0.099833847	0.83067369	-0.19654858	0.13199689	0.85344454	0.046212591	-0.079833919	0.87868829	-0.052403894	0.20489017	1.3101631	-0.21189411	0.1356979	1.3417709	0.059366357	0.09972377	1.3483919	-0.097194717	0.22100076	1.0834803	-0.47203109	-0.045975005	1.2067675	0.30682608	0.46848448	1.0989294	-0.52877544	0.00085949621	1.261974	0.54866295
239	0.952	-0.0023615217	-0.057055729	-0.1039338	0.56487019	0.1595795	0.093264536	-0.13029953	-0.023079426	-0.13389902	0.42549603	0.15144103	0.12681039	-0.11836453	0.0040130097	-0.050999493	0.4451309	0.17225174	0.041188751	-0.20082885	-0.042107189	-0.087467299	0.38442255	0.11062327	0.081869661	-0.0020546079	0.33877894	-0.18185651	0.38653066	0.54731707	0.090115826	0.011335286	0.32309222	-0.061594697	0.39003152	0.54840496	-0.034877348	0.02251334	0.73234643	-0.24968282	0.08125076	0.78722164	0.13513872	0.10523065	0.83164121	-0.19785746	0.14023541	0.8537957	0.045511827	-0.071572994	0.87990676	-0.050433365	0.21152742	1.3116982	-0.21168172	0.14256518	1.3430174	0.058598345	0.10682267	1.349352	-0.097378298	0.23094429	1.0886374	-0.47404018	-0.04105696	1.2124858	0.30635232	0.47781235	1.1077912	-0.52934219	0.0023307254	1.2713875	0.54799267
